<?xml version="1.0" standalone="no"?>
<!DOCTYPE svg PUBLIC "-//W3C//DTD SVG 20010904//EN"
 "http://www.w3.org/TR/2001/REC-SVG-20010904/DTD/svg10.dtd">
<svg version="1.0" xmlns="http://www.w3.org/2000/svg"
 width="189.000000pt" height="267.000000pt" viewBox="0 0 189.000000 267.000000"
 preserveAspectRatio="xMidYMid meet">

<g transform="translate(0.000000,267.000000) scale(0.100000,-0.100000)"
fill="#000000" stroke="none">
<path d="M1272 2132 c-123 -44 -202 -125 -275 -281 l-43 -92 -44 83 c-60 113
-153 207 -235 237 -81 31 -176 26 -259 -12 -85 -39 -182 -142 -234 -249 -66
-136 -77 -235 -42 -374 52 -207 161 -350 522 -687 85 -79 154 -153 182 -196
62 -92 69 -98 103 -76 48 30 434 425 528 538 189 228 257 341 295 491 24 94
27 255 6 331 -33 125 -113 226 -214 273 -77 35 -211 42 -290 14z"/>
</g>
</svg>
